<svg width="812" height="900" viewBox="0 0 812 900" fill="none" xmlns="http://www.w3.org/2000/svg">
<path fill-rule="evenodd" clip-rule="evenodd" d="M630.071 -134.746C769.069 -157.885 899.108 -305.938 1026.98 -246.688C1153.89 -187.881 1134.92 0.356678 1194.67 126.87C1252.72 249.778 1375.69 347.256 1371.66 483.125C1367.43 625.287 1281.34 756.607 1173.21 848.938C1069.28 937.692 930.511 968.142 794.1 976.324C667.135 983.939 529.032 974.753 431.18 893.445C339.638 817.38 364.669 671.523 304.016 569.098C235.11 452.735 70.7822 394.902 56.3289 260.434C41.2421 120.071 114.361 -34.0598 230.582 -114.11C343.158 -191.65 495.241 -112.3 630.071 -134.746Z" fill="#D9F4FF"/>
</svg>
