<svg width="16" height="16" viewBox="0 0 16 16" fill="none" xmlns="http://www.w3.org/2000/svg">
<mask id="mask0" style="mask-type:alpha" maskUnits="userSpaceOnUse" x="1" y="1" width="14" height="14">
<path fill-rule="evenodd" clip-rule="evenodd" d="M8.00004 1.33334C4.32004 1.33334 1.33337 4.32001 1.33337 8.00001C1.33337 11.68 4.32004 14.6667 8.00004 14.6667C11.68 14.6667 14.6667 11.68 14.6667 8.00001C14.6667 4.32001 11.68 1.33334 8.00004 1.33334ZM8.00004 8.66668C7.63337 8.66668 7.33337 8.36668 7.33337 8.00001V5.33334C7.33337 4.96668 7.63337 4.66668 8.00004 4.66668C8.36671 4.66668 8.66671 4.96668 8.66671 5.33334V8.00001C8.66671 8.36668 8.36671 8.66668 8.00004 8.66668ZM7.33337 10V11.3333H8.66671V10H7.33337Z" fill="black"/>
</mask>
<g mask="url(#mask0)">
<rect width="16" height="16" fill="#394452"/>
</g>
</svg>
