<svg width="21" height="24" viewBox="0 0 21 24" fill="none" xmlns="http://www.w3.org/2000/svg">
<path d="M3.65216 8.70766C5.66919 8.70766 7.30432 6.92354 7.30432 4.72272C7.30432 2.52191 5.66919 0.737793 3.65216 0.737793C1.63513 0.737793 0 2.52191 0 4.72272C0 6.92354 1.63513 8.70766 3.65216 8.70766Z" fill="#0B0736"/>
<path d="M3.65216 23.6511C5.66919 23.6511 7.30432 21.867 7.30432 19.6662C7.30432 17.4654 5.66919 15.6813 3.65216 15.6813C1.63513 15.6813 0 17.4654 0 19.6662C0 21.867 1.63513 23.6511 3.65216 23.6511Z" fill="#0B0736"/>
<path d="M17.3478 8.70766C19.3649 8.70766 21 6.92354 21 4.72272C21 2.52191 19.3649 0.737793 17.3478 0.737793C15.3308 0.737793 13.6957 2.52191 13.6957 4.72272C13.6957 6.92354 15.3308 8.70766 17.3478 8.70766Z" fill="#0B0736"/>
<path d="M17.3478 23.6511C19.3649 23.6511 21 21.867 21 19.6662C21 17.4654 19.3649 15.6813 17.3478 15.6813C15.3308 15.6813 13.6957 17.4654 13.6957 19.6662C13.6957 21.867 15.3308 23.6511 17.3478 23.6511Z" fill="#0B0736"/>
</svg>
